<svg width="389" height="359" viewBox="0 0 389 359" fill="none" xmlns="http://www.w3.org/2000/svg">
<path d="M168.973 297.987L0 200V223.4C0 237.691 7.62397 250.896 20 258.041L153 334.829C178.371 349.477 209.629 349.477 235 334.829L368.856 257.547C381.232 250.402 388.856 237.197 388.856 222.906V200L219.055 298.034C203.556 306.983 184.455 306.965 168.973 297.987Z" fill="url(#paint0_linear_207_334)"/>
<path d="M168.973 253.987L0 156V202.494L167.5 299.2C183.898 308.668 204.102 308.668 220.5 299.2L388.856 202V156L219.055 254.034C203.556 262.983 184.455 262.965 168.973 253.987Z" fill="url(#paint1_linear_207_334)"/>
<path d="M169.224 14.1762L20.1352 99.4794C7.68302 106.604 0 119.852 0 134.198V157.494L167.5 254.2C183.898 263.668 204.102 263.668 220.5 254.2L388.856 157V134.249C388.856 119.875 381.144 106.607 368.655 99.4925L218.803 14.1293C203.432 5.37301 184.578 5.39086 169.224 14.1762Z" fill="url(#paint2_linear_207_334)"/>
<path d="M169.224 14.1762L22.3539 98.2099C12.3754 103.919 12.2649 118.27 22.1543 124.133L167.033 210.015C183.665 219.874 204.346 219.894 220.997 210.067L366.578 124.148C376.501 118.292 376.39 103.899 366.379 98.1961L218.803 14.1293C203.432 5.37301 184.578 5.39086 169.224 14.1762Z" fill="url(#paint3_radial_207_334)"/>
<path d="M173.887 45.3304L72.9125 103.074C66.2575 106.88 66.1838 116.45 72.7795 120.358L173.357 179.947C185.905 187.381 201.505 187.396 214.068 179.986L315.138 120.368C321.756 116.465 321.682 106.866 315.006 103.065L213.535 45.2928C201.242 38.2939 186.167 38.3082 173.887 45.3304Z" fill="url(#paint4_linear_207_334)"/>
<path d="M223.5 97.5L195 80.5V142L223.5 125.5V97.5Z" fill="url(#paint5_linear_207_334)"/>
<path d="M152.5 124.5L195.5 141.5L195.5 80L152.5 96.5L152.5 124.5Z" fill="url(#paint6_linear_207_334)"/>
<path d="M101.891 137.614V112.5H134.042L193.798 147L256.999 112.5H286.657V137.342L215.304 179.725C202.053 187.597 185.554 187.577 172.321 179.674L101.891 137.614Z" fill="url(#paint7_linear_207_334)"/>
<path d="M223.5 124V95.5L230 76.5L240.977 82.7725C242.846 83.8407 244 85.8288 244 87.9819V111L223.5 124Z" fill="url(#paint8_linear_207_334)"/>
<path d="M181.765 162.491L104.367 116.845C101.072 114.902 101.09 110.13 104.4 108.212L182.021 63.2298C189.742 58.7554 199.263 58.7359 207.002 63.1786L241.187 82.8022C244.481 84.6927 244.547 89.4199 241.309 91.4028L229.067 98.898C225.944 100.81 222.025 100.862 218.853 99.034L202.039 89.3455C197.375 86.6583 191.629 86.6757 186.982 89.3911L157.053 106.879C153.828 108.763 153.733 113.391 156.879 115.406L184.03 132.796C190.44 136.901 198.624 137.012 205.142 133.083L259.914 100.066C263.049 98.1759 266.966 98.15 270.126 99.9981L284.17 108.213C287.46 110.137 287.474 114.887 284.195 116.83L207.213 162.463C199.37 167.112 189.618 167.123 181.765 162.491Z" fill="url(#paint9_radial_207_334)"/>
<defs>
<linearGradient id="paint0_linear_207_334" x1="194.428" y1="200" x2="194.428" y2="358.5" gradientUnits="userSpaceOnUse">
<stop stop-color="#B0C9E7"/>
<stop offset="1" stop-color="#1254B9"/>
</linearGradient>
<linearGradient id="paint1_linear_207_334" x1="194" y1="201" x2="194.428" y2="314.5" gradientUnits="userSpaceOnUse">
<stop stop-color="#0D50B8"/>
<stop offset="1" stop-color="#000926"/>
</linearGradient>
<linearGradient id="paint2_linear_207_334" x1="194.428" y1="104.5" x2="194.428" y2="269.5" gradientUnits="userSpaceOnUse">
<stop stop-color="#B0C9E7"/>
<stop offset="1" stop-color="#1254B9"/>
</linearGradient>
<radialGradient id="paint3_radial_207_334" cx="0" cy="0" r="1" gradientUnits="userSpaceOnUse" gradientTransform="translate(194 113) rotate(90) scale(172 251.231)">
<stop stop-color="#92CCF2"/>
<stop offset="1" stop-color="white"/>
</radialGradient>
<linearGradient id="paint4_linear_207_334" x1="194" y1="34" x2="194" y2="192" gradientUnits="userSpaceOnUse">
<stop stop-color="#0F52B8"/>
<stop offset="1" stop-color="#001453"/>
</linearGradient>
<linearGradient id="paint5_linear_207_334" x1="200" y1="137.5" x2="215.5" y2="117.5" gradientUnits="userSpaceOnUse">
<stop stop-color="#021452"/>
<stop offset="1" stop-color="#153B9C"/>
</linearGradient>
<linearGradient id="paint6_linear_207_334" x1="174" y1="80" x2="174" y2="141.5" gradientUnits="userSpaceOnUse">
<stop stop-color="#1842AA"/>
<stop offset="1" stop-color="#000F48"/>
</linearGradient>
<linearGradient id="paint7_linear_207_334" x1="190.5" y1="137.5" x2="190.5" y2="189" gradientUnits="userSpaceOnUse">
<stop stop-color="#0D50B8"/>
<stop offset="1" stop-color="#000926"/>
</linearGradient>
<linearGradient id="paint8_linear_207_334" x1="234" y1="100" x2="244" y2="124" gradientUnits="userSpaceOnUse">
<stop stop-color="#153B9C"/>
<stop offset="1" stop-color="#000926"/>
</linearGradient>
<radialGradient id="paint9_radial_207_334" cx="0" cy="0" r="1" gradientUnits="userSpaceOnUse" gradientTransform="translate(194 113) rotate(90) scale(83.5 110.608)">
<stop stop-color="#9CC8E6"/>
<stop offset="1" stop-color="white"/>
</radialGradient>
</defs>
</svg>
