<svg width="20" height="20" viewBox="0 0 20 20" fill="none" xmlns="http://www.w3.org/2000/svg">
<path fill-rule="evenodd" clip-rule="evenodd" d="M9.9999 19.6C15.3018 19.6 19.5999 15.3019 19.5999 9.99999C19.5999 4.69806 15.3018 0.399994 9.9999 0.399994C4.69797 0.399994 0.399902 4.69806 0.399902 9.99999C0.399902 15.3019 4.69797 19.6 9.9999 19.6ZM14.4484 8.44852C14.9171 7.97989 14.9171 7.2201 14.4484 6.75147C13.9798 6.28284 13.22 6.28284 12.7514 6.75147L8.7999 10.7029L7.24843 9.15147C6.7798 8.68284 6.02 8.68284 5.55137 9.15147C5.08275 9.6201 5.08275 10.3799 5.55137 10.8485L7.95137 13.2485C8.42 13.7172 9.1798 13.7172 9.64843 13.2485L14.4484 8.44852Z" fill="#7E8492"/>
</svg>
