<svg width="25" height="25" viewBox="0 0 25 25" fill="none" xmlns="http://www.w3.org/2000/svg">
<circle cx="12.5" cy="12.5" r="12.1875" stroke="#363636" stroke-width="0.625"/>
<path d="M18.125 8.63666C18.125 7.70078 17.2992 6.875 16.3633 6.875H9.26166C8.32578 6.875 7.5 7.70078 7.5 8.63666V15.7383C7.5 16.6742 8.32578 17.5 9.26166 17.5H12.84V13.4812H11.5188V11.7196H12.84V11.0039C12.84 9.79275 13.7209 8.74676 14.8219 8.74676H16.2532V10.5084H14.8219C14.6567 10.5084 14.4916 10.6736 14.4916 11.0039V11.7196H16.2532V13.4812H14.4916V17.5H16.3633C17.2992 17.5 18.125 16.6742 18.125 15.7383V8.63666Z" fill="#1D1E25"/>
</svg>
