<svg width="26" height="25" viewBox="0 0 26 25" fill="none" xmlns="http://www.w3.org/2000/svg">
<circle cx="13" cy="12.5" r="12.1875" stroke="#363636" stroke-width="0.625"/>
<path d="M17.113 7.5H9.51202C8.65384 7.5 8 8.15385 8 9.01202V16.613C8 17.4712 8.65384 18.125 9.51202 18.125H17.113C17.9712 18.125 18.625 17.4712 18.625 16.613V9.01202C18.625 8.15385 17.9712 7.5 17.113 7.5ZM13.3125 16C15.0697 16 16.5 14.6106 16.5 12.9351C16.5 12.649 16.4591 12.3221 16.3774 12.0769H17.2764V16.4087C17.2764 16.613 17.113 16.8173 16.8678 16.8173H9.75721C9.55289 16.8173 9.34856 16.6538 9.34856 16.4087V12.0361H10.2885C10.2067 12.3221 10.1659 12.6082 10.1659 12.8942C10.125 14.6106 11.5553 16 13.3125 16ZM13.3125 14.774C12.1683 14.774 11.2692 13.875 11.2692 12.7716C11.2692 11.6683 12.1683 10.7692 13.3125 10.7692C14.4567 10.7692 15.3558 11.6683 15.3558 12.7716C15.3558 13.9159 14.4567 14.774 13.3125 14.774ZM17.2356 10.4014C17.2356 10.6466 17.0312 10.851 16.7861 10.851H15.6418C15.3966 10.851 15.1923 10.6466 15.1923 10.4014V9.29808C15.1923 9.05288 15.3966 8.84856 15.6418 8.84856H16.7861C17.0312 8.84856 17.2356 9.05288 17.2356 9.29808V10.4014Z" fill="#1D1E25"/>
</svg>
