<svg width="105" height="81" viewBox="0 0 105 81" fill="none" xmlns="http://www.w3.org/2000/svg">
<path d="M75.5166 53.7266H62.9298C58.0299 60.4406 50.1314 64.798 41.2217 64.798C32.312 64.798 24.4135 60.44 19.5136 53.7266H6.99609C12.9481 66.7862 26.0497 75.8563 41.2561 75.8563C56.4624 75.8563 69.5646 66.7862 75.516 53.7266H75.5166Z" fill="black"/>
<path d="M14.9477 31.7681C17.6338 19.6523 28.3766 10.596 41.2213 10.596C54.0661 10.596 64.8089 19.6523 67.495 31.7681H78.4363C75.5129 13.7509 59.9799 0 41.2562 0C22.5326 0 6.99898 13.7509 4.07617 31.7681H14.9482H14.9477Z" fill="black"/>
<path d="M91.7651 53.7041H84.1856C80.0788 66.1762 70.7447 76.171 58.8643 80.9347C59.0961 80.977 59.3344 81.0006 59.5787 81.0006H91.7651C93.9592 81.0006 95.7383 79.2101 95.7383 77.0006V57.7041C95.7383 55.4952 93.9598 53.7041 91.7651 53.7041Z" fill="black"/>
<path d="M3.744 37.912C3.97867 38.3173 4.24 38.8133 4.528 39.4C4.816 39.9867 5.10933 40.6053 5.408 41.256C5.70667 41.896 6 42.552 6.288 43.224C6.58667 43.8853 6.85867 44.4987 7.104 45.064C7.34933 44.4987 7.616 43.8853 7.904 43.224C8.192 42.552 8.48533 41.896 8.784 41.256C9.08267 40.6053 9.376 39.9867 9.664 39.4C9.952 38.8133 10.2133 38.3173 10.448 37.912H12.272C12.368 38.7227 12.4587 39.5867 12.544 40.504C12.6293 41.4107 12.704 42.344 12.768 43.304C12.8427 44.2533 12.9067 45.2133 12.96 46.184C13.024 47.144 13.0773 48.0827 13.12 49H11.136C11.0933 47.7093 11.04 46.3813 10.976 45.016C10.9227 43.6507 10.8373 42.328 10.72 41.048C10.6027 41.2933 10.464 41.5867 10.304 41.928C10.144 42.2693 9.97333 42.6427 9.792 43.048C9.61067 43.4427 9.424 43.8533 9.232 44.28C9.05067 44.7067 8.86933 45.1227 8.688 45.528C8.51733 45.9227 8.35733 46.296 8.208 46.648C8.05867 46.9893 7.93067 47.2827 7.824 47.528H6.32C6.21333 47.2827 6.08533 46.984 5.936 46.632C5.78667 46.28 5.62133 45.9067 5.44 45.512C5.26933 45.1067 5.088 44.6907 4.896 44.264C4.71467 43.8373 4.53333 43.4267 4.352 43.032C4.17067 42.6373 4 42.2693 3.84 41.928C3.68 41.576 3.54133 41.2827 3.424 41.048C3.30667 42.328 3.216 43.6507 3.152 45.016C3.09867 46.3813 3.05067 47.7093 3.008 49H1.024C1.06667 48.0827 1.11467 47.1333 1.168 46.152C1.232 45.1707 1.296 44.2 1.36 43.24C1.43467 42.2693 1.51467 41.3307 1.6 40.424C1.68533 39.5173 1.776 38.68 1.872 37.912H3.744ZM17.1166 43.448C17.1166 44.056 17.1913 44.6107 17.3406 45.112C17.49 45.6027 17.7033 46.024 17.9806 46.376C18.2686 46.7173 18.6153 46.984 19.0206 47.176C19.426 47.368 19.8846 47.464 20.3966 47.464C20.898 47.464 21.3513 47.368 21.7566 47.176C22.162 46.984 22.5033 46.7173 22.7806 46.376C23.0686 46.024 23.2873 45.6027 23.4366 45.112C23.586 44.6107 23.6606 44.056 23.6606 43.448C23.6606 42.84 23.586 42.2907 23.4366 41.8C23.2873 41.2987 23.0686 40.8773 22.7806 40.536C22.5033 40.184 22.162 39.912 21.7566 39.72C21.3513 39.528 20.898 39.432 20.3966 39.432C19.8846 39.432 19.426 39.528 19.0206 39.72C18.6153 39.912 18.2686 40.184 17.9806 40.536C17.7033 40.888 17.49 41.3093 17.3406 41.8C17.1913 42.2907 17.1166 42.84 17.1166 43.448ZM25.7726 43.448C25.7726 44.3973 25.6286 45.2347 25.3406 45.96C25.0633 46.6853 24.6793 47.2933 24.1886 47.784C23.7086 48.264 23.1433 48.6267 22.4926 48.872C21.842 49.1173 21.1486 49.24 20.4126 49.24C19.6766 49.24 18.978 49.1173 18.3166 48.872C17.666 48.6267 17.0953 48.264 16.6046 47.784C16.1246 47.2933 15.7406 46.6853 15.4526 45.96C15.1646 45.2347 15.0206 44.3973 15.0206 43.448C15.0206 42.4987 15.1646 41.6667 15.4526 40.952C15.7406 40.2267 16.13 39.6187 16.6206 39.128C17.122 38.6373 17.698 38.2693 18.3486 38.024C18.9993 37.7787 19.6873 37.656 20.4126 37.656C21.138 37.656 21.826 37.7787 22.4766 38.024C23.1273 38.2693 23.6926 38.6373 24.1726 39.128C24.6633 39.6187 25.0526 40.2267 25.3406 40.952C25.6286 41.6667 25.7726 42.4987 25.7726 43.448ZM30.8398 49C30.0398 47.272 29.2664 45.464 28.5198 43.576C27.7838 41.688 27.0958 39.8 26.4558 37.912H28.6798C28.9358 38.6587 29.1971 39.4213 29.4638 40.2C29.7304 40.9787 29.9971 41.7467 30.2638 42.504C30.5304 43.2507 30.7971 43.976 31.0638 44.68C31.3304 45.384 31.5918 46.0293 31.8478 46.616C32.0931 46.0293 32.3491 45.3893 32.6158 44.696C32.8824 43.992 33.1491 43.2613 33.4158 42.504C33.6931 41.7467 33.9651 40.9787 34.2318 40.2C34.4984 39.4213 34.7544 38.6587 34.9998 37.912H37.1598C36.5091 39.8 35.8158 41.688 35.0798 43.576C34.3438 45.464 33.5758 47.272 32.7758 49H30.8398ZM38.5936 37.912H40.6096V49H38.5936V37.912ZM43.2655 49V37.912H50.3855V39.624H45.2815V42.36H49.8255V44.04H45.2815V47.288H50.7695V49H43.2655ZM57.4183 39.432C56.2769 39.432 55.4023 39.7893 54.7943 40.504C54.1969 41.208 53.8983 42.1893 53.8983 43.448C53.8983 44.0453 53.9676 44.5947 54.1063 45.096C54.2556 45.5867 54.4689 46.008 54.7463 46.36C55.0343 46.712 55.3863 46.9893 55.8023 47.192C56.2289 47.384 56.7249 47.48 57.2903 47.48C57.6423 47.48 57.9463 47.4693 58.2023 47.448C58.4583 47.416 58.6609 47.3787 58.8103 47.336V43.352H60.8263V48.68C60.5489 48.7867 60.0796 48.904 59.4183 49.032C58.7569 49.16 57.9943 49.224 57.1303 49.224C56.3303 49.224 55.5996 49.096 54.9383 48.84C54.2769 48.584 53.7116 48.2107 53.2423 47.72C52.7836 47.2293 52.4263 46.6267 52.1703 45.912C51.9143 45.1973 51.7863 44.376 51.7863 43.448C51.7863 42.52 51.9249 41.6987 52.2023 40.984C52.4903 40.2693 52.8796 39.6667 53.3703 39.176C53.8609 38.6747 54.4369 38.296 55.0983 38.04C55.7596 37.784 56.4636 37.656 57.2103 37.656C57.7223 37.656 58.1756 37.6933 58.5703 37.768C58.9756 37.832 59.3223 37.9067 59.6103 37.992C59.8983 38.0773 60.1329 38.168 60.3142 38.264C60.5063 38.36 60.6396 38.4293 60.7143 38.472L60.1063 40.12C59.7863 39.928 59.3863 39.768 58.9062 39.64C58.4369 39.5013 57.9409 39.432 57.4183 39.432ZM66.2121 37.8C67.8121 37.8 69.0335 38.0933 69.8761 38.68C70.7295 39.2667 71.1561 40.1627 71.1561 41.368C71.1561 42.872 70.4148 43.8907 68.9321 44.424C69.1348 44.6693 69.3641 44.968 69.6201 45.32C69.8761 45.672 70.1375 46.056 70.4041 46.472C70.6708 46.8773 70.9268 47.2987 71.1721 47.736C71.4175 48.1627 71.6361 48.584 71.8281 49H69.5721C69.3695 48.616 69.1508 48.232 68.9161 47.848C68.6815 47.4533 68.4415 47.0747 68.1961 46.712C67.9615 46.3387 67.7268 45.992 67.4921 45.672C67.2575 45.3413 67.0388 45.048 66.8361 44.792C66.6868 44.8027 66.5588 44.808 66.4521 44.808C66.3455 44.808 66.2441 44.808 66.1481 44.808H65.1721V49H63.1561V38.072C63.6468 37.9653 64.1695 37.896 64.7241 37.864C65.2788 37.8213 65.7748 37.8 66.2121 37.8ZM66.3561 39.544C65.9295 39.544 65.5348 39.56 65.1721 39.592V43.176H66.0521C66.5428 43.176 66.9748 43.1493 67.3481 43.096C67.7215 43.0427 68.0308 42.9467 68.2761 42.808C68.5321 42.6693 68.7241 42.4827 68.8521 42.248C68.9801 42.0133 69.0441 41.7147 69.0441 41.352C69.0441 41.0107 68.9801 40.7227 68.8521 40.488C68.7241 40.2533 68.5375 40.0667 68.2921 39.928C68.0575 39.7893 67.7748 39.6933 67.4441 39.64C67.1135 39.576 66.7508 39.544 66.3561 39.544ZM81.1568 49C81.0074 48.5627 80.8528 48.1307 80.6927 47.704C80.5328 47.2773 80.3781 46.84 80.2288 46.392H75.5568C75.4074 46.84 75.2528 47.2827 75.0928 47.72C74.9434 48.1467 74.7941 48.5733 74.6448 49H72.5488C72.9648 47.816 73.3594 46.7227 73.7328 45.72C74.1061 44.7173 74.4688 43.768 74.8207 42.872C75.1834 41.976 75.5408 41.1227 75.8928 40.312C76.2448 39.5013 76.6074 38.7013 76.9808 37.912H78.8848C79.2581 38.7013 79.6208 39.5013 79.9728 40.312C80.3248 41.1227 80.6768 41.976 81.0288 42.872C81.3914 43.768 81.7594 44.7173 82.1328 45.72C82.5168 46.7227 82.9168 47.816 83.3328 49H81.1568ZM77.8928 40.056C77.6474 40.6213 77.3648 41.3093 77.0448 42.12C76.7354 42.9307 76.4101 43.8107 76.0688 44.76H79.7168C79.3754 43.8107 79.0448 42.9253 78.7248 42.104C78.4048 41.2827 78.1274 40.6 77.8928 40.056ZM87.1503 37.912C87.3849 38.3173 87.6463 38.8133 87.9343 39.4C88.2223 39.9867 88.5156 40.6053 88.8143 41.256C89.1129 41.896 89.4063 42.552 89.6943 43.224C89.9929 43.8853 90.2649 44.4987 90.5103 45.064C90.7556 44.4987 91.0223 43.8853 91.3103 43.224C91.5983 42.552 91.8916 41.896 92.1903 41.256C92.4889 40.6053 92.7823 39.9867 93.0703 39.4C93.3583 38.8133 93.6196 38.3173 93.8543 37.912H95.6783C95.7743 38.7227 95.8649 39.5867 95.9503 40.504C96.0356 41.4107 96.1103 42.344 96.1743 43.304C96.2489 44.2533 96.3129 45.2133 96.3663 46.184C96.4303 47.144 96.4836 48.0827 96.5263 49H94.5423C94.4996 47.7093 94.4463 46.3813 94.3823 45.016C94.3289 43.6507 94.2436 42.328 94.1263 41.048C94.0089 41.2933 93.8703 41.5867 93.7103 41.928C93.5503 42.2693 93.3796 42.6427 93.1983 43.048C93.0169 43.4427 92.8303 43.8533 92.6383 44.28C92.4569 44.7067 92.2756 45.1227 92.0943 45.528C91.9236 45.9227 91.7636 46.296 91.6143 46.648C91.4649 46.9893 91.3369 47.2827 91.2303 47.528H89.7263C89.6196 47.2827 89.4916 46.984 89.3423 46.632C89.1929 46.28 89.0276 45.9067 88.8463 45.512C88.6756 45.1067 88.4943 44.6907 88.3023 44.264C88.1209 43.8373 87.9396 43.4267 87.7583 43.032C87.5769 42.6373 87.4063 42.2693 87.2463 41.928C87.0863 41.576 86.9476 41.2827 86.8303 41.048C86.7129 42.328 86.6223 43.6507 86.5583 45.016C86.5049 46.3813 86.4569 47.7093 86.4143 49H84.4303C84.4729 48.0827 84.5209 47.1333 84.5743 46.152C84.6383 45.1707 84.7023 44.2 84.7663 43.24C84.8409 42.2693 84.9209 41.3307 85.0063 40.424C85.0916 39.5173 85.1823 38.68 85.2783 37.912H87.1503Z" fill="black"/>
</svg>
