<svg width="50" height="50" viewBox="0 0 50 50" fill="none" xmlns="http://www.w3.org/2000/svg">
<rect width="50" height="50" rx="25" fill="#1D1E25"/>
<path fill-rule="evenodd" clip-rule="evenodd" d="M25.2634 18.9637C25.6149 18.6122 26.1847 18.6122 26.5362 18.9637L31.9362 24.3637C32.2877 24.7151 32.2877 25.285 31.9362 25.6365L26.5362 31.0365C26.1847 31.3879 25.6149 31.3879 25.2634 31.0365C24.9119 30.685 24.9119 30.1151 25.2634 29.7637L29.127 25.9001L18.6998 25.9001C18.2027 25.9001 17.7998 25.4971 17.7998 25.0001C17.7998 24.503 18.2027 24.1001 18.6998 24.1001H29.127L25.2634 20.2365C24.9119 19.885 24.9119 19.3151 25.2634 18.9637Z" fill="white"/>
</svg>
