<svg width="50" height="50" viewBox="0 0 50 50" fill="none" xmlns="http://www.w3.org/2000/svg">
<rect x="49.5" y="49.5" width="49" height="49" rx="24.5" transform="rotate(-180 49.5 49.5)" fill="white"/>
<rect x="49.5" y="49.5" width="49" height="49" rx="24.5" transform="rotate(-180 49.5 49.5)" stroke="#CED1D8"/>
<path fill-rule="evenodd" clip-rule="evenodd" d="M24.7366 31.0363C24.3851 31.3878 23.8153 31.3878 23.4638 31.0363L18.0638 25.6363C17.7123 25.2848 17.7123 24.715 18.0638 24.3635L23.4638 18.9635C23.8153 18.6121 24.3851 18.6121 24.7366 18.9635C25.0881 19.315 25.0881 19.8848 24.7366 20.2363L20.873 24.0999L31.3002 24.0999C31.7973 24.0999 32.2002 24.5029 32.2002 24.9999C32.2002 25.497 31.7973 25.8999 31.3002 25.8999L20.873 25.8999L24.7366 29.7635C25.0881 30.115 25.0881 30.6849 24.7366 31.0363Z" fill="#CED1D8"/>
</svg>
