<svg width="20" height="20" viewBox="0 0 20 20" fill="none" xmlns="http://www.w3.org/2000/svg">
<path d="M9.81804 4.28564C9.12452 4.28564 8.44657 4.4913 7.86992 4.8766C7.29328 5.2619 6.84384 5.80954 6.57844 6.45027C6.31304 7.09101 6.2436 7.79605 6.3789 8.47625C6.5142 9.15644 6.84816 9.78124 7.33856 10.2716C7.82895 10.762 8.45376 11.096 9.13395 11.2313C9.81415 11.3666 10.5192 11.2972 11.1599 11.0318C11.8007 10.7664 12.3483 10.3169 12.7336 9.74027C13.1189 9.16363 13.3246 8.48568 13.3246 7.79216C13.3246 6.86217 12.9551 5.97028 12.2975 5.31268C11.6399 4.65508 10.748 4.28564 9.81804 4.28564ZM9.81804 9.89607C9.40193 9.89607 8.99516 9.77268 8.64917 9.54149C8.30318 9.31031 8.03352 8.98173 7.87428 8.59729C7.71504 8.21285 7.67338 7.78982 7.75456 7.38171C7.83574 6.97359 8.03611 6.59871 8.33035 6.30447C8.62459 6.01023 8.99947 5.80986 9.40759 5.72868C9.81571 5.6475 10.2387 5.68916 10.6232 5.8484C11.0076 6.00764 11.3362 6.2773 11.5674 6.62329C11.7986 6.96928 11.9219 7.37604 11.9219 7.79216C11.9214 8.34998 11.6996 8.88479 11.3051 9.27923C10.9107 9.67367 10.3759 9.89551 9.81804 9.89607Z" fill="#1D1E25"/>
<path d="M9.81824 0.078125C7.87638 0.078125 5.97812 0.653955 4.36352 1.7328C2.74892 2.81164 1.49049 4.34504 0.747373 6.13909C0.00425408 7.93314 -0.19018 9.90726 0.188659 11.8118C0.567498 13.7164 1.50259 15.4658 2.8757 16.8389C4.24881 18.212 5.99825 19.1471 7.9028 19.5259C9.80735 19.9048 11.7815 19.7104 13.5755 18.9672C15.3696 18.2241 16.903 16.9657 17.9818 15.3511C19.0607 13.7365 19.6365 11.8382 19.6365 9.89636C19.6335 7.29332 18.5981 4.79773 16.7575 2.9571C14.9169 1.11647 12.4213 0.0810948 9.81824 0.078125ZM5.61043 17.1738V16.2081C5.61098 15.6503 5.83282 15.1155 6.22726 14.721C6.6217 14.3266 7.15651 14.1047 7.71433 14.1042H11.9222C12.48 14.1047 13.0148 14.3266 13.4092 14.721C13.8037 15.1155 14.0255 15.6503 14.0261 16.2081V17.1738C12.7491 17.9194 11.297 18.3123 9.81824 18.3123C8.33953 18.3123 6.88738 17.9194 5.61043 17.1738ZM15.4231 16.1562C15.4091 15.2363 15.0343 14.3587 14.3795 13.7126C13.7246 13.0664 12.8421 12.7033 11.9222 12.7016H7.71433C6.79435 12.7033 5.91187 13.0664 5.25703 13.7126C4.60219 14.3587 4.22741 15.2363 4.21343 16.1562C2.94166 15.0206 2.04481 13.5255 1.64164 11.8689C1.23846 10.2123 1.34798 8.47226 1.95568 6.87926C2.56339 5.28626 3.64062 3.91542 5.04474 2.94825C6.44885 1.98109 8.11362 1.46322 9.81859 1.46322C11.5236 1.46322 13.1883 1.98109 14.5925 2.94825C15.9966 3.91542 17.0738 5.28626 17.6815 6.87926C18.2892 8.47226 18.3987 10.2123 17.9956 11.8689C17.5924 13.5255 16.6955 15.0206 15.4238 16.1562H15.4231Z" fill="#1D1E25"/>
</svg>
