<svg width="1764" height="412" viewBox="0 0 1764 412" fill="none" xmlns="http://www.w3.org/2000/svg">
<path d="M58.715 327.68H0L14.4099 267.029H73.1249L58.715 327.68Z" fill="white"/>
<path d="M241.958 122.285C225.182 104.004 208.406 85.7229 191.63 67.2266C164.101 67.2266 136.572 67.2266 109.257 67.2266C108.182 67.2266 107.107 67.2266 106.031 67.2266C87.1049 85.0776 68.1784 102.929 49.252 120.995C37.6381 169.601 26.0241 218.423 14.4102 267.03H163.456C182.382 249.179 201.309 231.327 220.235 213.261C227.548 182.936 234.86 152.611 241.958 122.285ZM168.187 185.732C160.875 192.614 153.562 199.711 146.035 206.594H88.1802C92.6968 187.237 97.4284 167.881 101.945 148.524C109.257 141.642 116.57 134.544 124.097 127.662C143.454 127.662 162.811 127.662 181.952 127.662C177.436 147.019 172.704 166.375 168.187 185.732Z" fill="white"/>
<path d="M335.514 67.4409C334.438 67.4409 333.363 67.4409 332.288 67.4409C313.361 85.292 294.435 103.143 275.508 121.209C263.894 169.816 252.28 218.637 240.667 267.244H330.997C349.063 252.619 367.345 237.779 385.411 223.154C381.97 237.779 378.313 252.619 374.872 267.244H389.712C404.337 267.244 419.177 267.244 433.802 267.244C441.545 234.338 449.287 201.431 457.03 168.525C464.988 134.759 473.161 101.207 481.118 67.4409C432.727 67.4409 384.12 67.4409 335.514 67.4409ZM401.541 155.191C401.111 157.342 394.659 184.656 394.444 185.301L394.229 185.731C392.508 192.829 390.788 199.711 389.282 206.808C375.302 206.808 361.323 206.593 347.558 206.593H314.437C318.953 187.237 323.685 167.88 328.201 148.523C335.514 141.641 342.826 134.544 350.354 127.661C369.71 127.661 388.852 127.661 408.209 127.661C406.703 134.114 403.047 149.384 401.541 155.191Z" fill="white"/>
<path d="M511.013 327.679H452.298L466.708 267.028H525.423L511.013 327.679Z" fill="white"/>
<path d="M643.929 67.4409C616.4 67.4409 588.87 67.4409 561.556 67.4409C560.481 67.4409 559.405 67.4409 558.33 67.4409C539.403 85.292 520.477 103.143 501.551 121.209C489.937 169.816 478.323 218.637 466.709 267.244H615.754C634.681 249.393 653.607 231.542 672.534 213.476C679.846 183.15 686.944 152.825 694.256 122.5C677.48 104.003 660.705 85.7221 643.929 67.4409ZM620.486 185.731C613.174 192.613 605.861 199.711 598.334 206.593H540.479C544.995 187.237 549.727 167.88 554.244 148.523C561.556 141.641 568.868 134.544 576.396 127.661C595.753 127.661 615.109 127.661 634.251 127.661C629.734 147.018 625.003 166.375 620.486 185.731Z" fill="white"/>
<path d="M787.813 67.2266C786.738 67.2266 785.663 67.2266 784.587 67.2266C765.661 85.0776 746.734 102.929 727.808 120.995C716.194 169.601 704.58 218.423 692.966 267.03H783.297C801.363 252.405 819.644 237.565 837.71 222.94C834.269 237.565 830.613 252.405 827.172 267.03H842.012C856.637 267.03 871.477 267.03 886.102 267.03C893.844 234.123 901.587 201.217 909.33 168.311C917.287 134.544 925.46 100.993 933.418 67.2266C885.026 67.2266 836.42 67.2266 787.813 67.2266ZM853.841 155.192C853.411 157.342 846.958 184.657 846.743 185.302L846.528 185.732C844.808 192.829 843.087 199.712 841.582 206.809C827.602 206.809 813.622 206.594 799.857 206.594H766.736C771.253 187.237 775.984 167.881 780.501 148.524C787.813 141.642 795.126 134.544 802.653 127.662C822.01 127.662 841.152 127.662 860.508 127.662C859.003 133.899 855.346 149.385 853.841 155.192Z" fill="white"/>
<path d="M1468.09 67.4409C1446.8 76.0438 1425.29 84.4317 1404 93.0347C1405.93 84.4317 1408.08 76.0438 1410.02 67.4409C1390.23 67.4409 1370.45 67.4409 1350.66 67.4409C1329.37 76.0438 1307.86 84.4317 1286.57 93.0347C1288.5 84.4317 1290.65 76.0438 1292.59 67.4409C1272.8 67.4409 1253.02 67.4409 1233.23 67.4409C1217.31 134.114 1201.61 200.571 1185.7 267.244C1205.49 267.244 1225.27 267.244 1245.06 267.244C1253.45 231.972 1261.83 196.915 1270.22 161.643L1334.31 136.049C1323.99 179.709 1313.45 223.584 1303.13 267.244C1322.92 267.244 1342.7 267.244 1362.49 267.244C1370.88 231.972 1379.26 196.915 1387.65 161.643L1451.74 136.049C1441.42 179.709 1430.88 223.584 1420.56 267.244C1440.35 267.244 1460.13 267.244 1479.92 267.244C1495.83 200.571 1511.53 134.114 1527.45 67.4409C1507.66 67.4409 1487.88 67.4409 1468.09 67.4409Z" fill="#F4662F"/>
<path d="M1093.43 267.03C1113.22 267.03 1133.01 267.03 1152.79 267.03C1168.71 200.357 1184.41 133.899 1200.32 67.2266C1180.54 67.2266 1160.75 67.2266 1140.96 67.2266C1125.26 133.899 1109.35 200.572 1093.43 267.03Z" fill="white"/>
<path d="M1156.88 1.19873C1153.22 16.8991 1149.35 32.8145 1145.69 48.5148C1165.48 48.5148 1185.27 48.5148 1205.05 48.5148C1208.71 32.8145 1212.58 16.8991 1216.24 1.19873C1196.24 1.19873 1176.45 1.19873 1156.88 1.19873Z" fill="white"/>
<path d="M1094.94 122.07C1099.67 101.853 1104.62 81.8511 1109.35 61.6342C1096.66 61.6342 1084.18 61.6342 1071.49 61.6342C1053.43 76.2592 1035.15 91.0992 1017.08 105.724C1025.47 70.8823 1033.64 35.8253 1042.03 0.983398C1022.24 0.983398 1002.46 0.983398 982.669 0.983398C961.592 89.5935 940.515 178.204 919.223 266.814C931.912 266.814 944.816 266.814 957.506 266.814V267.029H1060.31C1065.04 246.812 1069.99 226.81 1074.72 206.593C1047.41 206.593 1020.09 206.593 992.993 206.593C999.66 178.419 1006.33 150.244 1013.21 122.07C1040.31 122.285 1067.62 122.285 1094.94 122.07Z" fill="white"/>
<path d="M1748.54 185.732C1753.49 164.655 1758.65 143.362 1763.6 122.285C1746.82 104.004 1730.05 85.7229 1713.27 67.2266C1682.09 67.2266 1651.12 67.2266 1619.93 67.2266C1627.46 85.2927 1634.77 103.359 1642.3 121.425C1663.16 121.425 1684.02 121.425 1704.88 121.425C1702.73 130.673 1700.58 139.921 1698.22 148.954C1665.74 148.954 1633.05 148.954 1600.57 148.954C1602.73 139.706 1604.88 130.458 1607.24 121.425C1611.54 103.359 1615.84 85.2927 1620.15 67.2266C1596.06 85.0776 1571.97 102.929 1548.1 120.995C1540.78 151.75 1533.47 182.506 1526.16 213.476C1545.09 231.327 1564.01 249.179 1582.94 267.03C1620.58 267.03 1673.48 267.03 1711.12 267.03C1715.42 249.179 1719.73 231.327 1723.81 213.261C1682.73 213.261 1626.38 213.261 1585.52 213.261C1587.67 204.013 1589.82 194.765 1592.19 185.732C1644.02 185.732 1696.28 185.732 1748.54 185.732Z" fill="white"/>
<path d="M1220.97 409.622V402.525C1216.24 408.977 1210.43 411.128 1202.47 411.128C1192.58 411.128 1185.91 405.106 1185.91 395.642C1185.91 389.19 1188.49 384.459 1194.73 381.448C1200.97 378.437 1211.29 377.361 1219.89 376.071C1219.46 370.264 1215.16 367.038 1208.5 367.038C1203.33 367.038 1198.6 368.543 1194.73 372.63L1188.92 366.177C1194.09 360.586 1200.75 357.79 1209.36 357.79C1214.52 357.79 1219.89 359.94 1223.34 362.951C1228.07 367.038 1229.57 372.845 1229.57 379.082V409.622H1220.97ZM1219.89 384.028C1214.3 384.889 1208.71 385.964 1204.84 386.824C1199.89 387.9 1195.59 390.481 1195.59 394.997C1195.59 399.729 1199.46 402.74 1204.62 402.74C1210.65 402.74 1215.59 399.944 1218.17 395.642C1220.11 392.201 1219.89 388.545 1219.89 384.028Z" fill="#F4662F"/>
<path d="M1362.27 359.08V409.407H1353.67V403.17L1352.16 405.106C1348.94 408.762 1343.99 410.483 1339.48 410.698C1334.1 411.128 1328.51 410.053 1323.99 405.966C1317.75 400.589 1317.32 391.771 1317.32 383.384V358.865H1327.22V382.953C1327.22 389.406 1327.86 395.213 1331.95 398.654C1334.1 400.589 1337.11 401.45 1340.77 401.45C1343.56 401.235 1346.14 400.374 1348.08 398.654C1350.23 396.933 1351.52 394.352 1352.16 391.126C1352.81 388.33 1352.81 384.459 1352.81 380.803V358.865H1362.27V359.08Z" fill="#F4662F"/>
<path d="M1465.29 367.039V389.191C1465.29 393.277 1465.29 396.073 1466.58 398.009C1467.66 399.944 1469.81 401.235 1472.18 401.45C1474.76 401.665 1477.77 401.45 1480.56 401.235V409.623C1476.91 410.483 1471.32 410.698 1467.87 410.053C1463.36 408.978 1459.92 406.827 1457.98 402.956C1456.04 399.299 1455.83 394.998 1455.83 389.836V367.039H1446.15V359.296H1455.83V345.316H1465.51V359.296H1480.56V367.039H1465.29Z" fill="#F4662F"/>
<path d="M1570.03 402.74C1565.73 397.363 1564.23 391.126 1564.23 384.459C1564.23 377.576 1566.16 371.124 1570.03 366.177C1574.55 360.801 1581.43 357.79 1588.74 357.79C1596.06 357.79 1602.94 360.586 1607.46 366.177C1611.76 371.554 1613.48 377.791 1613.48 384.459C1613.48 391.341 1611.76 397.363 1607.46 402.74C1602.94 408.332 1596.06 411.128 1588.74 411.128C1581.65 410.913 1574.77 408.117 1570.03 402.74ZM1603.15 384.244C1603.15 379.727 1602.29 375.21 1599.71 371.769C1597.35 368.328 1593.05 366.823 1588.74 366.823C1584.44 366.823 1580.36 368.328 1577.78 371.769C1575.2 375.21 1574.34 379.727 1574.34 384.244C1574.34 388.76 1575.2 393.277 1577.78 396.503C1580.14 399.944 1584.23 401.45 1588.74 401.45C1593.05 401.45 1597.35 399.729 1599.71 396.503C1602.29 393.277 1603.15 388.76 1603.15 384.244Z" fill="#F4662F"/>
</svg>
